# xmcd
#
# Track frame offsets:
#	150
#	12460
#	23389
#	46774
#	65029
#	79543
#	95175
#	106702
#	124578
#	139323
#	150560
#	178273
#	195841
#	206032
#	215602
#
# Disc length: 3134 seconds
#
# Revision: 1
# Processed by: cddbd v1.5.2PL0 Copyright (c) Steve Scherf et al.
# Submitted via: audiograbber 1.82.01
#
DISCID=c70c3c0f
DTITLE=Various Artist - Country Trilogy CD 3
DYEAR=1900
DGENRE=
TTITLE0=Donovan - Colours
TTITLE1=Jim Croce   - Time In A Bottle 
TTITLE2=Denny Laine and Paul McCartney  - Anyone Can Fly  
TTITLE3=Magna Carta   - Airport Song  
TTITLE4=Katrina   - They Don't Know  
TTITLE5=Crosby and Nash   - Cowboy Of Dreams  
TTITLE6=Lovin' Spoonful  - Nashville Cats 
TTITLE7=Kim Carnes   - To Love  
TTITLE8=Tina Turner   - Good Hearted Woman  
TTITLE9=The New Seekers - I'd Like To Teach The World So Sing
TTITLE10=Grateful Dead - Candyman
TTITLE11=Great White   - Going To California  
TTITLE12=Carl Perkins   - Daddy Sang Bass 
TTITLE13=Jaon Baetz and Bill Wood   - So Soon In The Morning  
TTITLE14=Bob Dylan - Baby, Please Don't Go
EXTD=
EXTT0=
EXTT1=
EXTT2=
EXTT3=
EXTT4=
EXTT5=
EXTT6=
EXTT7=
EXTT8=
EXTT9=
EXTT10=
EXTT11=
EXTT12=
EXTT13=
EXTT14=
PLAYORDER=
